<?xml version="1.0" encoding="UTF-8"?>
<svg version="1.1" xmlns="http://www.w3.org/2000/svg" width="219" height="231">
<path d="M0 0 C3.3 0 6.6 0 10 0 C10.495 1.98 10.495 1.98 11 4 C11.66 4 12.32 4 13 4 C13.52895556 8.12585335 12.85711915 10.63657031 10.8359375 14.15234375 C10.38033447 14.94487549 9.92473145 15.73740723 9.45532227 16.55395508 C7.13641345 20.45148023 4.74701399 24.29876483 2.3125 28.125 C1.79284668 28.94613281 1.27319336 29.76726563 0.73779297 30.61328125 C-2.55583181 35.79629554 -5.9338321 40.91412216 -9.375 46 C-13.30304018 51.80622906 -16.80503347 57.7529313 -20 64 C-20.66 64 -21.32 64 -22 64 C-22.33 65.65 -22.66 67.3 -23 69 C-23.66 69 -24.32 69 -25 69 C-25.103125 69.71929687 -25.20625 70.43859375 -25.3125 71.1796875 C-26.07481715 74.30692035 -27.27714375 76.41647119 -29 79.125 C-30.69670099 81.80872417 -31.99256926 83.97770778 -33 87 C-33.66 87 -34.32 87 -35 87 C-35.185625 88.36125 -35.185625 88.36125 -35.375 89.75 C-35.92109677 92.58970323 -36.57263803 94.52590591 -38 97 C-38.66 97 -39.32 97 -40 97 C-40.0825 97.845625 -40.165 98.69125 -40.25 99.5625 C-41.12202175 103.55926638 -42.86568267 106.57604217 -45 110 C-47.84268791 114.70820185 -50.01389686 119.32885088 -52 124.45703125 C-53.53625583 128.36368182 -55.27331891 132.17473729 -57 136 C-57.75095435 137.68707552 -58.50097895 139.37456525 -59.25 141.0625 C-59.83333333 142.375 -60.41666667 143.6875 -61 145 C-61.66 145 -62.32 145 -63 145 C-63 147.64 -63 150.28 -63 153 C-62.34 153.33 -61.68 153.66 -61 154 C-60.77183594 153.43796875 -60.54367188 152.8759375 -60.30859375 152.296875 C-58.63937691 149.36702574 -56.56725179 147.50096637 -54.0625 145.25 C-52.74958984 144.05117188 -52.74958984 144.05117188 -51.41015625 142.828125 C-49 141 -49 141 -46 141 C-45.67 140.01 -45.34 139.02 -45 138 C-42.85546875 136.4296875 -42.85546875 136.4296875 -40.1875 134.875 C-39.31480469 134.35679687 -38.44210938 133.83859375 -37.54296875 133.3046875 C-35.31362373 132.1609068 -33.44546695 131.46743191 -31 131 C-31 130.34 -31 129.68 -31 129 C-30.26394531 128.60167969 -29.52789062 128.20335937 -28.76953125 127.79296875 C-27.79371094 127.26316406 -26.81789062 126.73335938 -25.8125 126.1875 C-24.84957031 125.66542969 -23.88664062 125.14335937 -22.89453125 124.60546875 C-20.22601643 123.12536134 -17.60625773 121.58662491 -15 120 C-16.25476971 116.23569087 -17.69422618 115.94955892 -21 114 C-21 113.34 -21 112.68 -21 112 C-21.66 112 -22.32 112 -23 112 C-23.08133791 110.08404032 -23.13934367 108.16708068 -23.1875 106.25 C-23.23970703 104.64898437 -23.23970703 104.64898437 -23.29296875 103.015625 C-22.9694088 99.68511459 -22.34811426 98.34242876 -20 96 C-19.34 96 -18.68 96 -18 96 C-17.75121094 95.41476563 -17.50242188 94.82953125 -17.24609375 94.2265625 C-15.82558144 91.68834301 -14.2779547 90.24802874 -12.0625 88.375 C-11.37285156 87.78460938 -10.68320313 87.19421875 -9.97265625 86.5859375 C-6.62464229 83.89426687 -5.44241126 83 -1 83 C-1 82.34 -1 81.68 -1 81 C0.77007714 80.91885894 2.54122098 80.86074495 4.3125 80.8125 C5.29863281 80.77769531 6.28476563 80.74289063 7.30078125 80.70703125 C10 81 10 81 11.82421875 82.33203125 C13.71291804 85.01134885 13.50969827 86.81438583 13 90 C10.625 92.75 10.625 92.75 8 95 C7.34 95.66 6.68 96.32 6 97 C5.01 97 4.02 97 3 97 C3 97.66 3 98.32 3 99 C1.25 100.5078125 1.25 100.5078125 -1 102.125 C-1.7425 102.66382812 -2.485 103.20265625 -3.25 103.7578125 C-3.8275 104.16773437 -4.405 104.57765625 -5 105 C-3.63016497 108.16115776 -3.0109362 108.9927092 0 111 C0 111.66 0 112.32 0 113 C0.54414551 112.84853516 1.08829102 112.69707031 1.64892578 112.54101562 C4.13883818 111.85275576 6.63181483 111.17630389 9.125 110.5 C10.40890625 110.14228516 10.40890625 110.14228516 11.71875 109.77734375 C16.25740871 108.55539717 20.25220812 107.68866938 25 108 C25.4640625 106.824375 25.4640625 106.824375 25.9375 105.625 C27 103 27 103 28 101 C28.66 101 29.32 101 30 101 C30 100.01 30 99.02 30 98 C30.66 98 31.32 98 32 98 C32.495 96.515 32.495 96.515 33 95 C33.66 95 34.32 95 35 95 C35.23203125 94.443125 35.4640625 93.88625 35.703125 93.3125 C39.44953614 86.63215243 46.36652099 80.76902216 53 77 C53.99 76.4225 54.98 75.845 56 75.25 C59.2904444 73.8789815 61.47158874 73.59904418 65 74 C67.69272254 76.69272254 67.81721467 78.71211743 68.1640625 82.42578125 C67.72193624 89.36295275 62.81197188 95.41818404 59 101 C58.67 101.99 58.34 102.98 58 104 C58.639375 104.28875 59.27875 104.5775 59.9375 104.875 C62 106 62 106 63 108 C63.13415472 110.6723621 63.04318541 113.32250488 63 116 C64.093125 115.360625 65.18625 114.72125 66.3125 114.0625 C68.5838291 112.73398675 70.47439892 111.84186703 73 111 C73 110.34 73 109.68 73 109 C75.475 108.505 75.475 108.505 78 108 C78 107.34 78 106.68 78 106 C79.32 106.33 80.64 106.66 82 107 C82.75 109.1875 82.75 109.1875 83 112 C80.08547915 116.40839586 76.38269124 119.19988439 72.125 122.1875 C71.52558594 122.62513672 70.92617187 123.06277344 70.30859375 123.51367188 C66.66619751 126.10127441 63.36336508 127.80574564 59 129 C59 129.66 59 130.32 59 131 C58.00870778 132.00863261 57.00708356 133.00713409 56 134 C54.65785426 136.08291461 53.42404163 138.21076914 52.18359375 140.35546875 C51.79300781 140.89816406 51.40242187 141.44085938 51 142 C50.34 142 49.68 142 49 142 C48.88914062 142.59296875 48.77828125 143.1859375 48.6640625 143.796875 C47.93116553 146.22836847 47.07036228 147.38238166 45.375 149.25 C44.82972656 149.8584375 44.28445312 150.466875 43.72265625 151.09375 C43.15417969 151.7228125 42.58570313 152.351875 42 153 C41.48308594 153.6084375 40.96617187 154.216875 40.43359375 154.84375 C22.61701621 175.79432793 22.61701621 175.79432793 10 180 C8.00346488 180.1441942 6.00151894 180.2205659 4 180.25 C2.948125 180.27578125 1.89625 180.3015625 0.8125 180.328125 C-2 180 -2 180 -3.86328125 178.74609375 C-5.89152114 175.63055001 -5.17837017 172.62686003 -5 169 C-4.34 169 -3.68 169 -3 169 C-2.87625 168.401875 -2.7525 167.80375 -2.625 167.1875 C-2 165 -2 165 0 162 C0.66 162 1.32 162 2 162 C2.33 161.01 2.66 160.02 3 159 C5.09399578 157.33954982 7.17258107 155.81505258 9.375 154.3125 C10.65271526 153.42240806 11.93005441 152.53177599 13.20703125 151.640625 C13.84592285 151.19783203 14.48481445 150.75503906 15.14306641 150.29882812 C18.67519633 147.8282876 22.12979016 145.25089448 25.59765625 142.69140625 C28 141 28 141 30.640625 139.4453125 C33.21407827 137.99518794 33.21407827 137.99518794 35.6875 135.3125 C36.450625 134.549375 37.21375 133.78625 38 133 C38.66 133 39.32 133 40 133 C40 132.34 40 131.68 40 131 C40.66 131 41.32 131 42 131 C42.2784375 130.42121094 42.556875 129.84242188 42.84375 129.24609375 C43.95400874 127.08934113 45.17946873 125.09563504 46.5 123.0625 C48.3601869 120.1268068 49.86462521 117.30290849 51 114 C50.01 114.66 49.02 115.32 48 116 C44.9375 116.25 44.9375 116.25 42 116 C39.23776722 113.23776722 39.42143709 110.79293383 39 107 C38.69191406 107.60328125 38.38382812 108.2065625 38.06640625 108.828125 C34.76347061 114.14713824 31.80517134 116.47190904 25.81811523 117.91699219 C23.63467648 118.3603444 21.44790616 118.76112859 19.25390625 119.1484375 C14.92222294 119.91526658 11.07478293 121.35538637 7 123 C7.08121094 123.70382813 7.16242188 124.40765625 7.24609375 125.1328125 C7.92340968 135.72105752 3.9317245 144.2081684 -2.61328125 152.4140625 C-3.40089844 153.26742187 -4.18851562 154.12078125 -5 155 C-5.66 155 -6.32 155 -7 155 C-7.268125 155.639375 -7.53625 156.27875 -7.8125 156.9375 C-9 159 -9 159 -12 160 C-12.33 160.66 -12.66 161.32 -13 162 C-13.33 162.66 -13.66 163.32 -14 164 C-14.99 164.33 -15.98 164.66 -17 165 C-17.33 165.99 -17.66 166.98 -18 168 C-29.81911406 177.21172694 -42.0284727 184.39113607 -57.3984375 183.56640625 C-61.74598034 182.88268205 -63.97889324 181.70166632 -66.93359375 178.5078125 C-69.09876221 175.44643878 -69.13494968 173.33622951 -69.125 169.625 C-69.12757812 168.66851562 -69.13015625 167.71203125 -69.1328125 166.7265625 C-69.01551878 164.31859146 -68.68675951 162.30009932 -68 160 C-69.6396875 160.1546875 -69.6396875 160.1546875 -71.3125 160.3125 C-75 160 -75 160 -76.765625 158.0234375 C-78.45874029 153.87637662 -78.02914678 150.6832566 -77.4375 146.3125 C-77.28740479 145.1059375 -77.28740479 145.1059375 -77.13427734 143.875 C-76.29213896 137.76918848 -74.67482651 132.55616535 -72 127 C-71.36516952 125.39969817 -70.74044721 123.79535585 -70.125 122.1875 C-68.04178171 116.95870509 -65.66646215 111.87635884 -63.26953125 106.78515625 C-61.94272103 104.00438829 -61.94272103 104.00438829 -61 101 C-60.34 101 -59.68 101 -59 101 C-58.87625 100.278125 -58.7525 99.55625 -58.625 98.8125 C-58.0095069 96.04278106 -57.11555626 93.6029646 -56 91 C-55.34 91 -54.68 91 -54 91 C-53.87625 90.0925 -53.7525 89.185 -53.625 88.25 C-53.07890323 85.41029677 -52.42736197 83.47409409 -51 81 C-50.34 81 -49.68 81 -49 81 C-48.95875 80.21625 -48.9175 79.4325 -48.875 78.625 C-47.82552902 74.27719164 -45.87472145 71.20073385 -43.47265625 67.46484375 C-42.02186378 65.03659428 -40.9775925 62.64941736 -40 60 C-39.34 60 -38.68 60 -38 60 C-37.81630859 59.14148438 -37.81630859 59.14148438 -37.62890625 58.265625 C-36.97237132 55.90046809 -36.06276488 53.92793203 -34.9375 51.75 C-34.57527344 51.04359375 -34.21304688 50.3371875 -33.83984375 49.609375 C-33.56269531 49.07828125 -33.28554687 48.5471875 -33 48 C-32.34 48 -31.68 48 -31 48 C-30.814375 46.8553125 -30.814375 46.8553125 -30.625 45.6875 C-30 43 -30 43 -28 40 C-27.34 40 -26.68 40 -26 40 C-26.495 38.02 -26.495 38.02 -27 36 C-29.49552484 36.78130071 -29.49552484 36.78130071 -32 38 C-32.33 38.99 -32.66 39.98 -33 41 C-35.109375 42.8671875 -35.109375 42.8671875 -37.75 44.875 C-40.66386116 47.13116107 -43.46234712 49.32476354 -46 52 C-46.66 52.66 -47.32 53.32 -48 54 C-48.66 54 -49.32 54 -50 54 C-50.28875 54.763125 -50.5775 55.52625 -50.875 56.3125 C-52 59 -52 59 -54 62 C-52.515 62.495 -52.515 62.495 -51 63 C-49.39274365 66.21451269 -49.94251815 69.43612536 -50 73 C-52.475 73.495 -52.475 73.495 -55 74 C-55 74.66 -55 75.32 -55 76 C-65.74282826 78.76001516 -65.74282826 78.76001516 -71 76 C-74.15953362 71.26069956 -73.75234129 66.53750301 -73 61 C-69.9964951 53.22286374 -63.03408405 43.8370783 -55.7265625 39.71875 C-55.15679687 39.4815625 -54.58703125 39.244375 -54 39 C-54 38.34 -54 37.68 -54 37 C-52.35 36.34 -50.7 35.68 -49 35 C-49 34.34 -49 33.68 -49 33 C-47.26451831 31.55473264 -45.46024037 30.1912778 -43.625 28.875 C-42.62726563 28.15054688 -41.62953125 27.42609375 -40.6015625 26.6796875 C-38 25 -38 25 -36 25 C-36 24.34 -36 23.68 -36 23 C-35.21625 22.9175 -34.4325 22.835 -33.625 22.75 C-32.75875 22.5025 -31.8925 22.255 -31 22 C-30.29848848 20.6846659 -29.63474075 19.34882408 -29 18 C-26.06026776 15.88942301 -24.65351863 15 -21 15 C-21 14.34 -21 13.68 -21 13 C-19.35 12.67 -17.7 12.34 -16 12 C-15.67 11.01 -15.34 10.02 -15 9 C-12.39757586 7.35179805 -11.13751221 7 -8 7 C-8 6.34 -8 5.68 -8 5 C-5.09451118 2.95830515 -3.59857954 2 0 2 C0 1.34 0 0.68 0 0 Z M44 99 C44.33 99.66 44.66 100.32 45 101 C45.33 100.34 45.66 99.68 46 99 C45.34 99 44.68 99 44 99 Z M-12 130 C-12 130.66 -12 131.32 -12 132 C-12.53753906 132.09410156 -13.07507813 132.18820313 -13.62890625 132.28515625 C-27.60587422 136.49897032 -46.5562668 151.91897327 -54.36328125 164.1328125 C-55.27408041 166.18691872 -55.27408041 166.18691872 -54 169 C-54 168.34 -54 167.68 -54 167 C-53.34 166.9175 -52.68 166.835 -52 166.75 C-46.33401512 165.33350378 -40.80020557 162.30014133 -36 159 C-36 158.34 -36 157.68 -36 157 C-35.34 156.79375 -34.68 156.5875 -34 156.375 C-29.92819814 154.50875748 -26.31203002 152.02438473 -23 149 C-23 148.34 -23 147.68 -23 147 C-22.01 146.67 -21.02 146.34 -20 146 C-20 145.34 -20 144.68 -20 144 C-19.34 144 -18.68 144 -18 144 C-18 143.34 -18 142.68 -18 142 C-17.01 141.67 -16.02 141.34 -15 141 C-13.33126118 139.21355334 -13.33126118 139.21355334 -11.8125 137.0625 C-11.28269531 136.35222656 -10.75289062 135.64195312 -10.20703125 134.91015625 C-8.8219373 133.09480515 -8.8219373 133.09480515 -9 131 C-9.99 130.67 -10.98 130.34 -12 130 Z M-64 154 C-63 156 -63 156 -63 156 Z " fill="#F1F1F1" transform="translate(110,17)"/>
<path d="M0 0 C1.32 0.33 2.64 0.66 4 1 C4.75 3.1875 4.75 3.1875 5 6 C2.08547915 10.40839586 -1.61730876 13.19988439 -5.875 16.1875 C-6.77412109 16.84395508 -6.77412109 16.84395508 -7.69140625 17.51367188 C-11.33380249 20.10127441 -14.63663492 21.80574564 -19 23 C-19 23.66 -19 24.32 -19 25 C-19.99129222 26.00863261 -20.99291644 27.00713409 -22 28 C-23.34214574 30.08291461 -24.57595837 32.21076914 -25.81640625 34.35546875 C-26.20699219 34.89816406 -26.59757812 35.44085938 -27 36 C-27.66 36 -28.32 36 -29 36 C-29.11085937 36.59296875 -29.22171875 37.1859375 -29.3359375 37.796875 C-30.06883447 40.22836847 -30.92963772 41.38238166 -32.625 43.25 C-33.17027344 43.8584375 -33.71554688 44.466875 -34.27734375 45.09375 C-34.84582031 45.7228125 -35.41429687 46.351875 -36 47 C-36.51691406 47.6084375 -37.03382813 48.216875 -37.56640625 48.84375 C-55.38298379 69.79432793 -55.38298379 69.79432793 -68 74 C-69.99653512 74.1441942 -71.99848106 74.2205659 -74 74.25 C-75.051875 74.27578125 -76.10375 74.3015625 -77.1875 74.328125 C-80 74 -80 74 -81.86328125 72.74609375 C-83.89152114 69.63055001 -83.17837017 66.62686003 -83 63 C-82.34 63 -81.68 63 -81 63 C-80.87625 62.401875 -80.7525 61.80375 -80.625 61.1875 C-80 59 -80 59 -78 56 C-77.34 56.33 -76.68 56.66 -76 57 C-76.48082031 57.54140625 -76.96164063 58.0828125 -77.45703125 58.640625 C-79.31323558 61.47897288 -79.48737656 63.38792626 -79.6875 66.75 C-79.75324219 67.73484375 -79.81898437 68.7196875 -79.88671875 69.734375 C-79.92410156 70.48203125 -79.96148437 71.2296875 -80 72 C-73.50888662 72.40569459 -68.98696523 71.52082747 -63 69 C-62.34 69 -61.68 69 -61 69 C-60.505 67.515 -60.505 67.515 -60 66 C-58.35666496 64.96210419 -56.68756133 63.96432076 -55 63 C-54.443125 62.443125 -53.88625 61.88625 -53.3125 61.3125 C-52.879375 60.879375 -52.44625 60.44625 -52 60 C-51.34 60 -50.68 60 -50 60 C-49.76410156 59.43539062 -49.52820313 58.87078125 -49.28515625 58.2890625 C-47.70765058 55.47928037 -45.75948714 53.60380949 -43.4375 51.375 C-40.30957946 48.48929319 -40.30957946 48.48929319 -38 45 C-37.34 45 -36.68 45 -36 45 C-35.67 43.68 -35.34 42.36 -35 41 C-34.34 41 -33.68 41 -33 41 C-32.60941406 39.91912109 -32.60941406 39.91912109 -32.2109375 38.81640625 C-30.95342975 35.89168661 -29.46230708 33.53299712 -27.625 30.9375 C-27.03976563 30.10089844 -26.45453125 29.26429688 -25.8515625 28.40234375 C-24.03789993 26.04917396 -22.21834412 23.97642594 -20 22 C-19.34 22 -18.68 22 -18 22 C-18 21.34 -18 20.68 -18 20 C-15.09451118 17.95830515 -13.59857954 17 -10 17 C-10 16.34 -10 15.68 -10 15 C-7.525 14.505 -7.525 14.505 -5 14 C-5 13.34 -5 12.68 -5 12 C-3.27906524 10.67896914 -1.46701945 9.5652041 0.37109375 8.4140625 C2.43173395 6.89829174 2.43173395 6.89829174 3 3 C0.36 3.66 -2.28 4.32 -5 5 C-5 4.34 -5 3.68 -5 3 C-2.525 2.505 -2.525 2.505 0 2 C0 1.34 0 0.68 0 0 Z " fill="#434343" transform="translate(188,123)"/>
<path d="M0 0 C0.33 0 0.66 0 1 0 C0.6299174 4.29490602 0.21517743 8.30383772 -1.0625 12.4375 C-2.50742803 17.92822652 -2.80785943 23.57642171 -1 29 C1.97 29 4.94 29 8 29 C7.95875 27.576875 7.9175 26.15375 7.875 24.6875 C7.76867825 21.01939967 7.86413322 20.20380017 10 17 C10 19.31 10 21.62 10 24 C10.66 24.33 11.32 24.66 12 25 C12.22816406 24.43796875 12.45632812 23.8759375 12.69140625 23.296875 C14.36062309 20.36702574 16.43274821 18.50096637 18.9375 16.25 C19.81277344 15.45078125 20.68804687 14.6515625 21.58984375 13.828125 C24 12 24 12 27 12 C27.33 11.01 27.66 10.02 28 9 C30.1796875 7.39453125 30.1796875 7.39453125 32.875 5.8125 C33.75929687 5.28269531 34.64359375 4.75289062 35.5546875 4.20703125 C38 3 38 3 41 3 C38.66531825 6.50202263 36.79831687 7.33823637 33 9 C32.34 9 31.68 9 31 9 C30.67 9.99 30.34 10.98 30 12 C28.43359375 13.140625 28.43359375 13.140625 26.4375 14.25 C18.66165407 18.92667574 13.54992418 23.56893008 10 32 C9.34 32 8.68 32 8 32 C7.15336562 37.07980627 6.57790739 41.85047015 7 47 C9.20740681 49.96858157 10.48597373 50.82865791 14 52 C20.35866888 52.43538656 25.98864489 52.13737071 32 50 C32 49.34 32 48.68 32 48 C36.455 47.505 36.455 47.505 41 47 C35.04789443 52.95210557 28.099824 54.44845061 19.8125 54.625 C15.04206799 54.61669878 11.32943909 54.30043626 7.5625 51.125 C4.36081296 47.66416858 3.86242529 45.31536852 3.875 40.625 C3.87242188 39.66851562 3.86984375 38.71203125 3.8671875 37.7265625 C3.98448122 35.31859146 4.31324049 33.30009932 5 31 C3.906875 31.103125 2.81375 31.20625 1.6875 31.3125 C-2 31 -2 31 -3.76953125 29.03125 C-5.47107326 24.83951475 -4.97951236 21.5975269 -4.375 17.1875 C-4.29121094 16.41857422 -4.20742188 15.64964844 -4.12109375 14.85742188 C-3.46376071 9.52221875 -2.05001617 4.96647563 0 0 Z M9 25 C10 27 10 27 10 27 Z " fill="#3F3F3F" transform="translate(37,146)"/>
<path d="M0 0 C-0.74263359 4.82711834 -3.47286023 8.73465562 -7.1875 11.8125 C-10.0305914 15.24381721 -9.74184391 18.6113465 -10 23 C-6.7 22.34 -3.4 21.68 0 21 C0.90004282 26.70027121 -1.51823541 29.99207549 -4.484375 34.59375 C-6.14725394 37.1077384 -6.14725394 37.1077384 -7.5625 40.5 C-9.36225739 43.63001286 -10.67193234 43.81140441 -14 45 C-14.721875 45.721875 -15.44375 46.44375 -16.1875 47.1875 C-20.76719223 51.76719223 -26.44583097 56.84961467 -33 58 C-33 58.66 -33 59.32 -33 60 C-34.8436029 61.38490744 -36.75222264 62.68388849 -38.6875 63.9375 C-40.27111328 64.97197266 -40.27111328 64.97197266 -41.88671875 66.02734375 C-44.5686996 67.72671681 -47.26780108 69.38298431 -50 71 C-48.65702113 66.97106339 -45.99131729 65.60909701 -42.625 63.3125 C-41.34728474 62.42240806 -40.06994559 61.53177599 -38.79296875 60.640625 C-37.83463135 59.97643555 -37.83463135 59.97643555 -36.85693359 59.29882812 C-33.32480367 56.8282876 -29.87020984 54.25089448 -26.40234375 51.69140625 C-24 50 -24 50 -21.359375 48.4453125 C-18.78592173 46.99518794 -18.78592173 46.99518794 -16.3125 44.3125 C-15.549375 43.549375 -14.78625 42.78625 -14 42 C-13.34 42 -12.68 42 -12 42 C-12 41.34 -12 40.68 -12 40 C-11.34 40 -10.68 40 -10 40 C-9.7215625 39.42121094 -9.443125 38.84242188 -9.15625 38.24609375 C-8.04599126 36.08934113 -6.82053127 34.09563504 -5.5 32.0625 C-3.6398131 29.1268068 -2.13537479 26.30290849 -1 23 C-1.99 23.66 -2.98 24.32 -4 25 C-7.0625 25.25 -7.0625 25.25 -10 25 C-12.76223278 22.23776722 -12.57856291 19.79293383 -13 16 C-13.40089844 16.63808594 -13.80179688 17.27617188 -14.21484375 17.93359375 C-18.80274686 24.60217855 -18.80274686 24.60217855 -22.46875 25.8203125 C-24.68106945 26.03734384 -26.78198517 26.1257378 -29 26 C-28.67 25.34 -28.34 24.68 -28 24 C-25.69 24 -23.38 24 -21 24 C-20.690625 22.9790625 -20.690625 22.9790625 -20.375 21.9375 C-18.37810143 17.67139851 -15.30423557 13.15211778 -11 11 C-10.38125 9.9171875 -10.38125 9.9171875 -9.75 8.8125 C-4.26666667 0 -4.26666667 0 0 0 Z M-8 8 C-7.67 8.66 -7.34 9.32 -7 10 C-6.67 9.34 -6.34 8.68 -6 8 C-6.66 8 -7.32 8 -8 8 Z " fill="#4A4A4A" transform="translate(162,108)"/>
<path d="M0 0 C2.69272254 2.69272254 2.81721467 4.71211743 3.1640625 8.42578125 C2.72193624 15.36295275 -2.18802812 21.41818404 -6 27 C-6.33 27.99 -6.66 28.98 -7 30 C-6.360625 30.28875 -5.72125 30.5775 -5.0625 30.875 C-3 32 -3 32 -2 34 C-1.86584528 36.6723621 -1.95681459 39.32250488 -2 42 C-0.906875 41.34 0.18625 40.68 1.3125 40 C3.93707538 38.41535071 4.8256378 38 8 38 C5.86447403 41.20328895 4.26767874 42.12108473 1 44 C0.34 44.66 -0.32 45.32 -1 46 C-2.32 46 -3.64 46 -5 46 C-5 41.71 -5 37.42 -5 33 C-5.66 33 -6.32 33 -7 33 C-8.6875 31.75 -8.6875 31.75 -10 30 C-9.86469349 26.07611125 -7.28166247 23.04221662 -5 20 C-4.34 20 -3.68 20 -3 20 C-2.67 18.02 -2.34 16.04 -2 14 C-1.34 14 -0.68 14 0 14 C0.0270043 12.54176788 0.04639787 11.08339325 0.0625 9.625 C0.07410156 8.81289062 0.08570313 8.00078125 0.09765625 7.1640625 C0.14466334 4.95062858 0.14466334 4.95062858 -1 3 C-5.455 3.495 -5.455 3.495 -10 4 C-10.33 4.99 -10.66 5.98 -11 7 C-12.2065625 7.4640625 -12.2065625 7.4640625 -13.4375 7.9375 C-16.57101079 9.23676057 -16.63462217 10.01323599 -18 13 C-21.08610613 16.5031475 -23.55534099 18.55848897 -28 20 C-28.66 20.33 -29.32 20.66 -30 21 C-26.85045779 13.4410987 -19.02175467 6.98963333 -12 3 C-11.01 2.4225 -10.02 1.845 -9 1.25 C-5.7095556 -0.1210185 -3.52841126 -0.40095582 0 0 Z " fill="#595959" transform="translate(175,91)"/>
<path d="M0 0 C0.66 0.33 1.32 0.66 2 1 C0.98421875 1.66644531 -0.0315625 2.33289063 -1.078125 3.01953125 C-19.68821709 14.73352929 -19.68821709 14.73352929 -32 32 C-30.24725073 31.23543868 -28.4979037 30.46307507 -26.75 29.6875 C-25.77546875 29.25824219 -24.8009375 28.82898438 -23.796875 28.38671875 C-20.99226614 27.11863059 -20.99226614 27.11863059 -18.828125 25.26953125 C-18.22484375 24.85058594 -17.6215625 24.43164062 -17 24 C-16.01 24.33 -15.02 24.66 -14 25 C-15 28 -15 28 -17.3984375 29.38671875 C-18.38070312 29.81597656 -19.36296875 30.24523437 -20.375 30.6875 C-21.84066406 31.34298828 -21.84066406 31.34298828 -23.3359375 32.01171875 C-26 33 -26 33 -29 33 C-29 33.66 -29 34.32 -29 35 C-30.98 35 -32.96 35 -35 35 C-34.87186721 28.84962603 -32.78588027 26.00868247 -28.69140625 21.50390625 C-27 20 -27 20 -25 20 C-24.7525 19.401875 -24.505 18.80375 -24.25 18.1875 C-22.81927475 15.68373081 -21.4308418 14.51927612 -19 13 C-18.34 13 -17.68 13 -17 13 C-17 12.34 -17 11.68 -17 11 C-16.34 11 -15.68 11 -15 11 C-15 10.34 -15 9.68 -15 9 C-10.50035851 5.41028601 -5.31144118 2.20230488 0 0 Z " fill="#3B3B3B" transform="translate(88,152)"/>
<path d="M0 0 C-1.65167557 3.5786304 -3.78286492 6.74820188 -6 10 C-6.66 9.01 -7.32 8.02 -8 7 C-10.49552484 7.78130071 -10.49552484 7.78130071 -13 9 C-13.33 9.99 -13.66 10.98 -14 12 C-16.109375 13.8671875 -16.109375 13.8671875 -18.75 15.875 C-21.66386116 18.13116107 -24.46234712 20.32476354 -27 23 C-27.66 23.66 -28.32 24.32 -29 25 C-29.66 25 -30.32 25 -31 25 C-31.28875 25.763125 -31.5775 26.52625 -31.875 27.3125 C-33 30 -33 30 -35 33 C-34.01 33.33 -33.02 33.66 -32 34 C-30.39274365 37.21451269 -30.94251815 40.43612536 -31 44 C-32.98 44.495 -32.98 44.495 -35 45 C-34.649375 44.443125 -34.29875 43.88625 -33.9375 43.3125 C-32.78154007 40.46113217 -33.19032562 38.91482778 -34 36 C-35.32 35.67 -36.64 35.34 -38 35 C-36.14260701 24.45096032 -23.87235295 15.51449327 -15.91796875 9.28515625 C-14 8 -14 8 -12 8 C-12 7.34 -12 6.68 -12 6 C-9.4385343 3.70351351 -8.52032428 3 -5 3 C-5 2.34 -5 1.68 -5 1 C-3 0 -3 0 0 0 Z " fill="#525252" transform="translate(91,46)"/>
<path d="M0 0 C1.32 0.33 2.64 0.66 4 1 C4.75 3.1875 4.75 3.1875 5 6 C2.08547915 10.40839586 -1.61730876 13.19988439 -5.875 16.1875 C-6.47441406 16.62513672 -7.07382813 17.06277344 -7.69140625 17.51367188 C-11.33380249 20.10127441 -14.63663492 21.80574564 -19 23 C-19 23.66 -19 24.32 -19 25 C-19.99134247 26.00858321 -20.99288283 27.00716818 -22 28 C-23.27563587 30.01942356 -24.44744011 32.08011662 -25.62109375 34.16015625 C-27.20087752 36.26802638 -28.58773697 37.01153553 -31 38 C-29.48222073 34.90689533 -27.88398765 31.87406788 -26.1875 28.875 C-25.70667969 28.00617188 -25.22585937 27.13734375 -24.73046875 26.2421875 C-22.71134157 23.62598207 -21.12236334 22.94360047 -18 22 C-18 21.34 -18 20.68 -18 20 C-15.09451118 17.95830515 -13.59857954 17 -10 17 C-10 16.34 -10 15.68 -10 15 C-8.35 14.67 -6.7 14.34 -5 14 C-5 13.34 -5 12.68 -5 12 C-3.27906524 10.67896914 -1.46701945 9.5652041 0.37109375 8.4140625 C2.43173395 6.89829174 2.43173395 6.89829174 3 3 C0.36 3.66 -2.28 4.32 -5 5 C-5 4.34 -5 3.68 -5 3 C-3.35 2.67 -1.7 2.34 0 2 C0 1.34 0 0.68 0 0 Z " fill="#494949" transform="translate(188,123)"/>
<path d="M0 0 C0.66 0 1.32 0 2 0 C1.7215625 0.67933594 1.443125 1.35867187 1.15625 2.05859375 C-0.61641726 6.56811552 -2.18050874 11.14980698 -3.78125 15.72265625 C-4.72731369 18.26671854 -5.7161324 20.61652357 -7 23 C-7.66 23 -8.32 23 -9 23 C-9.12375 24.258125 -9.2475 25.51625 -9.375 26.8125 C-9.69868059 30.10325263 -10.06604999 31.09907498 -12 34 C-12.66 34 -13.32 34 -14 34 C-14.17015625 34.84304687 -14.3403125 35.68609375 -14.515625 36.5546875 C-14.75796875 37.65039062 -15.0003125 38.74609375 -15.25 39.875 C-15.48203125 40.96554688 -15.7140625 42.05609375 -15.953125 43.1796875 C-17 46 -17 46 -19.109375 47.3828125 C-19.73328125 47.58648437 -20.3571875 47.79015625 -21 48 C-19.48312954 42.39217587 -17.77578993 37.22812929 -15.05078125 32.09375 C-13.08839909 28.18357589 -11.57159792 24.07946695 -10 20 C-9.34 20 -8.68 20 -8 20 C-7.87625 19.278125 -7.7525 18.55625 -7.625 17.8125 C-7.0095069 15.04278106 -6.11555626 12.6029646 -5 10 C-4.34 10 -3.68 10 -3 10 C-2.87625 9.0925 -2.7525 8.185 -2.625 7.25 C-2.07890323 4.41029677 -1.42736197 2.47409409 0 0 Z " fill="#606060" transform="translate(59,98)"/>
<path d="M0 0 C0.66 0.33 1.32 0.66 2 1 C1.505 1.680625 1.01 2.36125 0.5 3.0625 C-1.36135897 6.70766131 -1.51493817 8.9540572 -1 13 C0.89584109 15.31377147 0.89584109 15.31377147 3 17 C3 17.66 3 18.32 3 19 C4.65 19.33 6.3 19.66 8 20 C8.33 21.65 8.66 23.3 9 25 C2.6941723 28.99369088 -4.04471589 32.30482741 -11 35 C-11 34.34 -11 33.68 -11 33 C-10.26394531 32.60167969 -9.52789062 32.20335937 -8.76953125 31.79296875 C-7.79371094 31.26316406 -6.81789063 30.73335937 -5.8125 30.1875 C-4.84957031 29.66542969 -3.88664062 29.14335937 -2.89453125 28.60546875 C-0.22601643 27.12536134 2.39374227 25.58662491 5 24 C3.74523029 20.23569087 2.30577382 19.94955892 -1 18 C-1 17.34 -1 16.68 -1 16 C-1.66 16 -2.32 16 -3 16 C-3.08133791 14.08404032 -3.13934367 12.16708068 -3.1875 10.25 C-3.22230469 9.18265625 -3.25710937 8.1153125 -3.29296875 7.015625 C-2.97082786 3.69972145 -2.22851086 2.40983327 0 0 Z " fill="#3E3E3E" transform="translate(90,113)"/>
<path d="M0 0 C-5.28 1.65 -10.56 3.3 -16 5 C-15.855625 6.69125 -15.71125 8.3825 -15.5625 10.125 C-15.53755292 20.65266912 -21.26397171 29.29835799 -28 37 C-28.66 36.67 -29.32 36.34 -30 36 C-26.375 29.25 -26.375 29.25 -23 27 C-19.02389848 20.36402368 -18.46150415 13.392496 -18.17578125 5.80859375 C-18 3 -18 3 -17 2 C-15.00041636 1.95919217 -12.99954746 1.95745644 -11 2 C-11 1.34 -11 0.68 -11 0 C-3.375 -1.125 -3.375 -1.125 0 0 Z " fill="#4F4F4F" transform="translate(133,135)"/>
<path d="M0 0 C3.3 0 6.6 0 10 0 C10.33 1.32 10.66 2.64 11 4 C11.66 4 12.32 4 13 4 C13.76576436 9.97296203 11.32127772 14.21937298 8 19 C7.34 19.33 6.68 19.66 6 20 C6.2165625 19.443125 6.433125 18.88625 6.65625 18.3125 C8.61352595 12.94811407 9.31098961 8.70147617 9 3 C2.565 3.495 2.565 3.495 -4 4 C-4 4.66 -4 5.32 -4 6 C-5.32 6.33 -6.64 6.66 -8 7 C-8 6.34 -8 5.68 -8 5 C-5.09451118 2.95830515 -3.59857954 2 0 2 C0 1.34 0 0.68 0 0 Z " fill="#535353" transform="translate(110,17)"/>
<path d="M0 0 C1.77007714 -0.08114106 3.54122098 -0.13925505 5.3125 -0.1875 C6.29863281 -0.22230469 7.28476563 -0.25710937 8.30078125 -0.29296875 C11 0 11 0 12.82421875 1.33203125 C14.71291804 4.01134885 14.50969827 5.81438583 14 9 C11.625 11.75 11.625 11.75 9 14 C8.34 14.66 7.68 15.32 7 16 C6.01 15.67 5.02 15.34 4 15 C4.99 14.67 5.98 14.34 7 14 C7 13.34 7 12.68 7 12 C7.825 11.38125 8.65 10.7625 9.5 10.125 C10.325 9.42375 11.15 8.7225 12 8 C12 6.68 12 5.36 12 4 C9.2833108 1.72434625 9.2833108 1.72434625 6.75 2.25 C5.38875 2.62125 5.38875 2.62125 4 3 C2.865625 3.309375 1.73125 3.61875 0.5625 3.9375 C-2.64976687 4.89554451 -5.82801086 5.91688176 -9 7 C-6.75 4.5 -6.75 4.5 -4 2 C-2.68 2 -1.36 2 0 2 C0 1.34 0 0.68 0 0 Z " fill="#444444" transform="translate(109,98)"/>
<path d="M0 0 C0.66 0.33 1.32 0.66 2 1 C0.98421875 1.66644531 -0.0315625 2.33289063 -1.078125 3.01953125 C-9.23537892 8.45306158 -16.67499967 14.08521767 -23.7421875 20.8828125 C-26 23 -26 23 -28 24 C-27.67 22.68 -27.34 21.36 -27 20 C-26.34 20 -25.68 20 -25 20 C-24.7525 19.401875 -24.505 18.80375 -24.25 18.1875 C-22.81927475 15.68373081 -21.4308418 14.51927612 -19 13 C-18.34 13 -17.68 13 -17 13 C-17 12.34 -17 11.68 -17 11 C-16.34 11 -15.68 11 -15 11 C-15 10.34 -15 9.68 -15 9 C-10.50035851 5.41028601 -5.31144118 2.20230488 0 0 Z " fill="#4C4C4C" transform="translate(88,152)"/>
<path d="M0 0 C0.66 0.33 1.32 0.66 2 1 C1.43410156 1.51949219 0.86820313 2.03898437 0.28515625 2.57421875 C-0.44832031 3.27160156 -1.18179688 3.96898437 -1.9375 4.6875 C-2.66839844 5.37199219 -3.39929688 6.05648437 -4.15234375 6.76171875 C-6.21987857 9.26636452 -6.50517021 10.84871556 -7 14 C-8.29233607 15.37310707 -9.62437146 16.71034824 -11 18 C-11.33 18.99 -11.66 19.98 -12 21 C-12.66 21 -13.32 21 -14 21 C-14.33 22.98 -14.66 24.96 -15 27 C-15.66 26.01 -16.32 25.02 -17 24 C-14.83152562 14.41928592 -7.06419905 6.46815725 0 0 Z " fill="#595959" transform="translate(54,56)"/>
<path d="M0 0 C-2.24903613 4.49807225 -3.39785562 6.58935294 -8 9 C-8.99 9 -9.98 9 -11 9 C-11.3403125 9.9590625 -11.3403125 9.9590625 -11.6875 10.9375 C-13 13 -13 13 -15.625 13.75 C-16.40875 13.8325 -17.1925 13.915 -18 14 C-18 14.99 -18 15.98 -18 17 C-19.32 17 -20.64 17 -22 17 C-22 16.34 -22 15.68 -22 15 C-20.35 14.34 -18.7 13.68 -17 13 C-17 12.34 -17 11.68 -17 11 C-15.26451831 9.55473264 -13.46024037 8.1912778 -11.625 6.875 C-10.62726563 6.15054688 -9.62953125 5.42609375 -8.6015625 4.6796875 C-6 3 -6 3 -4 3 C-4 2.34 -4 1.68 -4 1 C-2 0 -2 0 0 0 Z " fill="#5D5D5D" transform="translate(78,39)"/>
<path d="M0 0 C1.98 0 3.96 0 6 0 C6 1.65 6 3.3 6 5 C5.34 5 4.68 5 4 5 C3.67 5.99 3.34 6.98 3 8 C1.33333333 9.66666667 -0.33333333 11.33333333 -2 13 C-2.53625 13.928125 -3.0725 14.85625 -3.625 15.8125 C-4.07875 16.534375 -4.5325 17.25625 -5 18 C-5.99 18 -6.98 18 -8 18 C-8.33 18.99 -8.66 19.98 -9 21 C-9.99 21.33 -10.98 21.66 -12 22 C-12 20 -12 20 -10.625 18.375 C-9 17 -9 17 -7 17 C-7 16.34 -7 15.68 -7 15 C-5.66666667 13.66666667 -4.33333333 12.33333333 -3 11 C-1.26209317 8.71068931 0.36321599 6.36424357 2 4 C1.34 4 0.68 4 0 4 C0 2.68 0 1.36 0 0 Z " fill="#484848" transform="translate(99,144)"/>
<path d="M0 0 C0.33 0.66 0.66 1.32 1 2 C0.21625 2.2475 -0.5675 2.495 -1.375 2.75 C-4.4855082 4.23119438 -4.61620468 4.97294774 -6 8 C-9.08610613 11.5031475 -11.55534099 13.55848897 -16 15 C-16.99 15.495 -16.99 15.495 -18 16 C-16.42851457 12.24589593 -14.09040851 9.758445 -11.25 6.875 C-10.40953125 6.00617188 -9.5690625 5.13734375 -8.703125 4.2421875 C-5.84794254 1.87387141 -3.56282028 0.92716668 0 0 Z " fill="#888888" transform="translate(163,96)"/>
<path d="M0 0 C-1.65167557 3.5786304 -3.78286492 6.74820188 -6 10 C-6.66 9.01 -7.32 8.02 -8 7 C-10.49552484 7.78130071 -10.49552484 7.78130071 -13 9 C-13.33 9.99 -13.66 10.98 -14 12 C-18.45714286 16 -18.45714286 16 -21 16 C-19.50958227 12.20620942 -17.30937488 10.31656242 -14 8 C-13.34 8 -12.68 8 -12 8 C-12 7.34 -12 6.68 -12 6 C-9.4385343 3.70351351 -8.52032428 3 -5 3 C-5 2.34 -5 1.68 -5 1 C-3 0 -3 0 0 0 Z " fill="#474747" transform="translate(91,46)"/>
<path d="M0 0 C0 0.66 0 1.32 0 2 C-1.75 3.5078125 -1.75 3.5078125 -4 5.125 C-4.7425 5.66382812 -5.485 6.20265625 -6.25 6.7578125 C-6.8275 7.16773437 -7.405 7.57765625 -8 8 C-6.63016497 11.16115776 -6.0109362 11.9927092 -3 14 C-3 14.66 -3 15.32 -3 16 C-2.13375 15.67 -1.2675 15.34 -0.375 15 C2.95718275 14.01268659 5.55159538 13.83579026 9 14 C5.15184249 16.56543834 1.69818865 18.17372723 -3 18 C-6.14813263 16.09345763 -8.55358428 13.73305298 -11 11 C-10.6647205 7.97216823 -10.3961853 6.40140972 -8.22265625 4.19921875 C-7.50980469 3.70035156 -6.79695313 3.20148438 -6.0625 2.6875 C-5.35222656 2.17574219 -4.64195313 1.66398437 -3.91015625 1.13671875 C-2 0 -2 0 0 0 Z " fill="#424242" transform="translate(113,114)"/>
<path d="M0 0 C0.66 0 1.32 0 2 0 C1.1875 1.9375 1.1875 1.9375 0 4 C-0.99 4.33 -1.98 4.66 -3 5 C-3.33 5.66 -3.66 6.32 -4 7 C-4.33 7.66 -4.66 8.32 -5 9 C-5.99 9.33 -6.98 9.66 -8 10 C-8.33 10.99 -8.66 11.98 -9 13 C-11.72265625 15.04296875 -11.72265625 15.04296875 -15.0625 17.1875 C-16.16722656 17.90292969 -17.27195312 18.61835938 -18.41015625 19.35546875 C-19.26480469 19.89816406 -20.11945313 20.44085938 -21 21 C-21.66 20.67 -22.32 20.34 -23 20 C-21.27744283 18.53386553 -19.54666216 17.07738944 -17.8125 15.625 C-16.84957031 14.81289062 -15.88664062 14.00078125 -14.89453125 13.1640625 C-12 11 -12 11 -9.19921875 9.8984375 C-8.47347656 9.60195312 -7.74773437 9.30546875 -7 9 C-6.67 8.01 -6.34 7.02 -6 6 C-5.34 6 -4.68 6 -4 6 C-4 5.34 -4 4.68 -4 4 C-3.34 4 -2.68 4 -2 4 C-2 3.34 -2 2.68 -2 2 C-1.34 2 -0.68 2 0 2 C0 1.34 0 0.68 0 0 Z " fill="#4E4E4E" transform="translate(101,172)"/>
<path d="M0 0 C0.66 0.33 1.32 0.66 2 1 C-0.33468175 4.50202263 -2.20168313 5.33823637 -6 7 C-6.66 7 -7.32 7 -8 7 C-8.33 7.99 -8.66 8.98 -9 10 C-10.53125 11.10546875 -10.53125 11.10546875 -12.5 12.1875 C-17.55901395 15.17525099 -21.71833898 19.0057653 -26 23 C-26 20 -26 20 -23.69921875 17.51953125 C-22.70313479 16.60855993 -21.69883746 15.70650701 -20.6875 14.8125 C-20.18798828 14.34908203 -19.68847656 13.88566406 -19.17382812 13.40820312 C-15.38414718 10 -15.38414718 10 -12 10 C-11.67 9.01 -11.34 8.02 -11 7 C-8.75 5.4296875 -8.75 5.4296875 -6 3.875 C-2.81043387 2.19447491 -2.81043387 2.19447491 0 0 Z " fill="#444444" transform="translate(76,148)"/>
<path d="M0 0 C-1.16369126 3.49107379 -1.88973538 3.85222763 -4.9375 5.6875 C-6.00291016 6.34298828 -6.00291016 6.34298828 -7.08984375 7.01171875 C-9 8 -9 8 -11 8 C-11 8.66 -11 9.32 -11 10 C-12.8436029 11.38490744 -14.75222264 12.68388849 -16.6875 13.9375 C-17.74324219 14.62714844 -18.79898438 15.31679687 -19.88671875 16.02734375 C-22.5686996 17.72671681 -25.26780108 19.38298431 -28 21 C-26.6570841 16.9712523 -23.99145726 15.60877265 -20.625 13.3125 C-19.35111751 12.42642065 -18.07768588 11.5396928 -16.8046875 10.65234375 C-16.1662793 10.21003418 -15.52787109 9.76772461 -14.87011719 9.31201172 C-11.22462846 6.75445866 -7.67419678 4.06678043 -4.109375 1.3984375 C-2 0 -2 0 0 0 Z " fill="#2F2F2F" transform="translate(140,158)"/>
<path d="M0 0 C0.33 0 0.66 0 1 0 C1 2.31 1 4.62 1 7 C1.99 7.33 2.98 7.66 4 8 C3.5359375 8.8971875 3.5359375 8.8971875 3.0625 9.8125 C1.89790296 12.08956772 1.89790296 12.08956772 1 15 C0.34 15 -0.32 15 -1 15 C-1.99 20.445 -1.99 20.445 -3 26 C-3.33 26 -3.66 26 -4 26 C-3.67 21.38 -3.34 16.76 -3 12 C-2.34 12 -1.68 12 -1 12 C-1.01160156 11.38511719 -1.02320313 10.77023438 -1.03515625 10.13671875 C-1.04417969 9.32847656 -1.05320313 8.52023438 -1.0625 7.6875 C-1.07410156 6.88699219 -1.08570313 6.08648437 -1.09765625 5.26171875 C-1 3 -1 3 0 0 Z M0 8 C1 10 1 10 1 10 Z " fill="#626262" transform="translate(46,163)"/>
<path d="M0 0 C0.66 0.33 1.32 0.66 2 1 C0.3770361 5.35249409 -1.25150329 9.6960081 -3 14 C-3.66 14 -4.32 14 -5 14 C-5 15.32 -5 16.64 -5 18 C-6.98 18.99 -6.98 18.99 -9 20 C-7.55676531 15.26210835 -5.62773267 11.01141849 -3.375 6.625 C-2.88773437 5.66400391 -2.88773437 5.66400391 -2.390625 4.68359375 C-1.59742593 3.12052499 -0.79922969 1.55999378 0 0 Z " fill="#5D5D5D" transform="translate(70,77)"/>
<path d="M0 0 C-1.6029053 0.81498562 -3.20737278 1.62689927 -4.8125 2.4375 C-5.70582031 2.88996094 -6.59914063 3.34242188 -7.51953125 3.80859375 C-11.62755638 5.78173968 -14.66939564 6.11108177 -19.1875 6.0625 C-20.81751953 6.04896484 -20.81751953 6.04896484 -22.48046875 6.03515625 C-23.31191406 6.02355469 -24.14335938 6.01195312 -25 6 C-25 5.67 -25 5.34 -25 5 C-23.64455078 4.80083984 -23.64455078 4.80083984 -22.26171875 4.59765625 C-21.08222656 4.42105469 -19.90273438 4.24445313 -18.6875 4.0625 C-16.92986328 3.80146484 -16.92986328 3.80146484 -15.13671875 3.53515625 C-11.98358597 3.07906969 -11.98358597 3.07906969 -9 2 C-9 1.34 -9 0.68 -9 0 C-3.375 -1.125 -3.375 -1.125 0 0 Z " fill="#676767" transform="translate(78,194)"/>
<path d="M0 0 C0.33 0 0.66 0 1 0 C1 1.65 1 3.3 1 5 C1.66 5 2.32 5 3 5 C3.33 5.99 3.66 6.98 4 8 C8.62 8 13.24 8 18 8 C18 8.66 18 9.32 18 10 C7.25717174 12.76001516 7.25717174 12.76001516 2 10 C-0.4294516 6.3558226 -0.16179575 4.28758728 0 0 Z " fill="#474747" transform="translate(37,83)"/>
<path d="M0 0 C0.33 0.66 0.66 1.32 1 2 C-0.59991069 4.4403891 -2.20469839 6.87731787 -3.8125 9.3125 C-4.26431641 10.00279297 -4.71613281 10.69308594 -5.18164062 11.40429688 C-5.84389648 12.40493164 -5.84389648 12.40493164 -6.51953125 13.42578125 C-7.12438354 14.34484253 -7.12438354 14.34484253 -7.74145508 15.2824707 C-9.02711809 17.0370079 -10.42445162 18.50453032 -12 20 C-11.29445932 16.33118845 -9.72264494 13.29549466 -8 10 C-7.34 10 -6.68 10 -6 10 C-5.8453125 9.1646875 -5.8453125 9.1646875 -5.6875 8.3125 C-4.85988599 5.52870742 -3.62262248 3.40148127 -2 1 C-1.34 0.67 -0.68 0.34 0 0 Z " fill="#4D4D4D" transform="translate(105,53)"/>
<path d="M0 0 C0.66 0 1.32 0 2 0 C0.17560144 7.19334287 -2.94294341 13.4947043 -8 19 C-8.99 19 -9.98 19 -11 19 C-7.375 12.25 -7.375 12.25 -4 10 C-2.77155177 7.5939111 -2.77155177 7.5939111 -1.8125 4.875 C-1.29623047 3.50988281 -1.29623047 3.50988281 -0.76953125 2.1171875 C-0.51558594 1.41851562 -0.26164062 0.71984375 0 0 Z " fill="#2B2B2B" transform="translate(114,152)"/>
<path d="M0 0 C0.66 0.33 1.32 0.66 2 1 C1.40138258 3.35171131 0.73075648 5.6859378 0 8 C-2.9615696 9.4807848 -5.83506295 9.35314037 -9.125 9.5625 C-10.40632813 9.64628906 -11.68765625 9.73007813 -13.0078125 9.81640625 C-13.99523437 9.87699219 -14.98265625 9.93757813 -16 10 C-13.41073669 7.41073669 -11.97294721 7.62601957 -8.375 7.375 C-7.37210938 7.30023438 -6.36921875 7.22546875 -5.3359375 7.1484375 C-4.17964844 7.07496094 -4.17964844 7.07496094 -3 7 C-2.690625 6.21625 -2.38125 5.4325 -2.0625 4.625 C-1 2 -1 2 0 0 Z " fill="#565656" transform="translate(138,118)"/>
<path d="M0 0 C1.32 0.33 2.64 0.66 4 1 C4.76576436 6.97296203 2.32127772 11.21937298 -1 16 C-1.66 16.33 -2.32 16.66 -3 17 C-2.7834375 16.443125 -2.566875 15.88625 -2.34375 15.3125 C-0.38647405 9.94811407 0.31098961 5.70147617 0 0 Z " fill="#6A6A6A" transform="translate(119,20)"/>
<path d="M0 0 C0.33 0.99 0.66 1.98 1 3 C-0.76718109 6.52200427 -3.07107583 9.37388795 -6 12 C-9.05824157 13.00008848 -11.79961363 13.1814278 -15 13 C-14.67 12.34 -14.34 11.68 -14 11 C-11.69 11 -9.38 11 -7 11 C-6.773125 10.29875 -6.54625 9.5975 -6.3125 8.875 C-4.68343133 5.30656387 -2.59359269 2.93485489 0 0 Z " fill="#4D4D4D" transform="translate(148,121)"/>
<path d="M0 0 C-0.61558505 4.0013028 -2.63737859 6.77824353 -5 10 C-5.99 10.495 -5.99 10.495 -7 11 C-7.33 10.34 -7.66 9.68 -8 9 C-8.66 8.67 -9.32 8.34 -10 8 C-8.71451591 6.66070495 -7.42141845 5.32871357 -6.125 4 C-5.04605469 2.88625 -5.04605469 2.88625 -3.9453125 1.75 C-2 0 -2 0 0 0 Z " fill="#6B6B6B" transform="translate(162,108)"/>
<path d="M0 0 C1 3 1 3 -0.3984375 5.8125 C-1.05070312 6.864375 -1.70296875 7.91625 -2.375 9 C-5.0568312 13.32697794 -5.0568312 13.32697794 -7 18 C-7.66 17.67 -8.32 17.34 -9 17 C-8.37935063 15.39414507 -7.7533082 13.79037383 -7.125 12.1875 C-6.77695313 11.29417969 -6.42890625 10.40085937 -6.0703125 9.48046875 C-5 7 -5 7 -3 4 C-2.34 4 -1.68 4 -1 4 C-0.67 2.68 -0.34 1.36 0 0 Z " fill="#444444" transform="translate(84,86)"/>
<path d="M0 0 C0.33 0.66 0.66 1.32 1 2 C-0.41097867 4.45669355 -1.86043594 6.77914624 -3.4375 9.125 C-4.0881543 10.11306641 -4.0881543 10.11306641 -4.75195312 11.12109375 C-5.82749114 12.75212943 -6.91284486 14.37668453 -8 16 C-9 13 -9 13 -7.9375 10.8125 C-5.39778291 7.1258139 -2.72370583 3.55227654 0 0 Z " fill="#474747" transform="translate(115,37)"/>
<path d="M0 0 C0.33 0.99 0.66 1.98 1 3 C-0.2739589 5.03833424 -1.61061923 7.03852126 -3 9 C-3.33 9.99 -3.66 10.98 -4 12 C-2.68 11.67 -1.36 11.34 0 11 C0 11.66 0 12.32 0 13 C-1.98 13 -3.96 13 -6 13 C-5.63118644 6.85310727 -4.09949571 4.30972626 0 0 Z " fill="#6D6D6D" transform="translate(59,174)"/>
<path d="M0 0 C0 3.48354205 -0.45035158 3.88427053 -2.6875 6.375 C-3.23019531 6.98214844 -3.77289063 7.58929688 -4.33203125 8.21484375 C-6.50166024 10.53690569 -8.71954485 12.78661706 -11 15 C-10.38722388 12.03824877 -9.74627478 10.61941217 -8 8 C-7.34 8 -6.68 8 -6 8 C-5.67 6.68 -5.34 5.36 -5 4 C-4.34 4 -3.68 4 -3 4 C-2.67 3.01 -2.34 2.02 -2 1 C-1.34 0.67 -0.68 0.34 0 0 Z " fill="#414141" transform="translate(158,160)"/>
<path d="M0 0 C0.33 0.66 0.66 1.32 1 2 C-1.05233685 4.2477975 -2.00667261 5.0022242 -5 6 C-6.68762851 7.6454378 -8.3540349 9.31288577 -10 11 C-10.99 11.66 -11.98 12.32 -13 13 C-11.40907948 8.86360664 -8.39525082 5.76786752 -5 3 C-4.34 3 -3.68 3 -3 3 C-3 2.34 -3 1.68 -3 1 C-2.01 0.67 -1.02 0.34 0 0 Z " fill="#555555" transform="translate(153,147)"/>
<path d="M0 0 C1.98 0 3.96 0 6 0 C6 1.65 6 3.3 6 5 C5.34 5 4.68 5 4 5 C3.67 5.99 3.34 6.98 3 8 C2.67 6.68 2.34 5.36 2 4 C1.34 4 0.68 4 0 4 C0 2.68 0 1.36 0 0 Z " fill="#8C8C8C" transform="translate(99,144)"/>
<path d="M0 0 C1.12080094 3.36240283 0.93568182 3.78467681 -0.375 6.875 C-1.37862224 9.3232982 -2.03577542 11.23509564 -2.4375 13.875 C-2.623125 14.57625 -2.80875 15.2775 -3 16 C-5.03515625 17.1328125 -5.03515625 17.1328125 -7 18 C-5.26375242 11.5811453 -3.14819255 5.86215164 0 0 Z " fill="#474747" transform="translate(45,128)"/>
<path d="M0 0 C-1.59092052 4.13639336 -4.60474918 7.23213248 -8 10 C-8.66 10 -9.32 10 -10 10 C-10 10.66 -10 11.32 -10 12 C-10.66 12 -11.32 12 -12 12 C-10.53033642 8.60140297 -8.61962486 6.35036291 -6 3.75 C-5.29875 3.04359375 -4.5975 2.3371875 -3.875 1.609375 C-2 0 -2 0 0 0 Z " fill="#616161" transform="translate(70,61)"/>
<path d="M0 0 C0.66 0 1.32 0 2 0 C0.48767623 5.29313319 -1.37490873 10.39577756 -6.25 13.375 C-6.8275 13.58125 -7.405 13.7875 -8 14 C-6.46226926 10.83582328 -4.77588602 7.7867651 -3 4.75 C-2.484375 3.85796875 -1.96875 2.9659375 -1.4375 2.046875 C-0.963125 1.37140625 -0.48875 0.6959375 0 0 Z " fill="#575757" transform="translate(165,147)"/>
<path d="M0 0 C0.66 0.33 1.32 0.66 2 1 C0 6 -2 11 -4 16 C-4.66 16 -5.32 16 -6 16 C-4.56176509 10.36691325 -2.45855991 5.26322777 0 0 Z " fill="#373737" transform="translate(53,146)"/>
<path d="M0 0 C0.33 0 0.66 0 1 0 C1 2.64 1 5.28 1 8 C2.093125 7.34 3.18625 6.68 4.3125 6 C6.93707538 4.41535071 7.8256378 4 11 4 C8.85398116 7.21902826 7.41088492 8.29455754 4 10 C2.68 10 1.36 10 0 10 C0 6.7 0 3.4 0 0 Z " fill="#464646" transform="translate(172,125)"/>
<path d="M0 0 C0.66 1.32 1.32 2.64 2 4 C1.40832031 3.89300781 0.81664062 3.78601563 0.20703125 3.67578125 C-4.98256381 2.8884528 -7.59108205 2.79351422 -12 6 C-12.66 5.67 -13.32 5.34 -14 5 C-9.15742979 0.94271144 -6.31225945 -0.14027243 0 0 Z " fill="#3F3F3F" transform="translate(175,91)"/>
<path d="M0 0 C0.33 0.99 0.66 1.98 1 3 C-1.31 5.31 -3.62 7.62 -6 10 C-6.99 9.67 -7.98 9.34 -9 9 C-6.03 6.03 -3.06 3.06 0 0 Z " fill="#C6C6C6" transform="translate(56,56)"/>
<path d="M0 0 C0 0.66 0 1.32 0 2 C-1.6796875 3.5078125 -1.6796875 3.5078125 -3.875 5.125 C-4.95394531 5.93324219 -4.95394531 5.93324219 -6.0546875 6.7578125 C-8 8 -8 8 -10 8 C-10.33 8.99 -10.66 9.98 -11 11 C-11 8.875 -11 8.875 -10 6 C-3.60655738 0 -3.60655738 0 0 0 Z " fill="#575757" transform="translate(113,114)"/>
<path d="M0 0 C0.66 0.33 1.32 0.66 2 1 C1.01 1.33 0.02 1.66 -1 2 C-1 2.66 -1 3.32 -1 4 C-1.66 4 -2.32 4 -3 4 C-3 4.66 -3 5.32 -3 6 C-5.31 6.66 -7.62 7.32 -10 8 C-10 7.34 -10 6.68 -10 6 C-8.35 5.67 -6.7 5.34 -5 5 C-4.67 4.01 -4.34 3.02 -4 2 C-2.0625 0.75 -2.0625 0.75 0 0 Z " fill="#484848" transform="translate(99,24)"/>
<path d="M0 0 C0.33 0.99 0.66 1.98 1 3 C-0.98 4.98 -2.96 6.96 -5 9 C-5.99 8.67 -6.98 8.34 -8 8 C-5.36 5.36 -2.72 2.72 0 0 Z " fill="#545454" transform="translate(146,173)"/>
<path d="M0 0 C0.33 0 0.66 0 1 0 C0.63495936 5.66442374 -0.0554321 10.00703705 -3 15 C-4.57156655 11.8568669 -3.11705576 9.634536 -2.0625 6.375 C-1.68222656 5.18648437 -1.30195312 3.99796875 -0.91015625 2.7734375 C-0.60980469 1.85820312 -0.30945312 0.94296875 0 0 Z " fill="#383838" transform="translate(37,146)"/>
<path d="M0 0 C0.99 0.33 1.98 0.66 3 1 C1.70700306 3.88437779 0.34058637 5.87219421 -2 8 C-2.6875 5.6875 -2.6875 5.6875 -3 3 C-1.5625 1.1875 -1.5625 1.1875 0 0 Z " fill="#202020" transform="translate(152,117)"/>
<path d="M0 0 C-1.95421035 0.86355778 -3.91351347 1.71559934 -5.875 2.5625 C-6.96554688 3.03816406 -8.05609375 3.51382813 -9.1796875 4.00390625 C-10.11039062 4.33261719 -11.04109375 4.66132812 -12 5 C-12.66 4.67 -13.32 4.34 -14 4 C-10.11825973 0.35351671 -5.28093731 -2.64046865 0 0 Z " fill="#5C5C5C" transform="translate(114,100)"/>
<path d="M0 0 C0.99 0.495 0.99 0.495 2 1 C2 4.3 2 7.6 2 11 C2.99 11.33 3.98 11.66 5 12 C3.35 12.33 1.7 12.66 0 13 C0 8.71 0 4.42 0 0 Z " fill="#949494" transform="translate(170,124)"/>
<path d="M0 0 C-2.23720177 4.47440354 -3.38701897 6.63725362 -8 9 C-8.66 8.67 -9.32 8.34 -10 8 C-9.195625 7.401875 -8.39125 6.80375 -7.5625 6.1875 C-4.77672016 4.19052724 -4.77672016 4.19052724 -4 1 C-2 0 -2 0 0 0 Z " fill="#8A8A8A" transform="translate(78,39)"/>
<path d="M0 0 C0 0.99 0 1.98 0 3 C-0.99 3.33 -1.98 3.66 -3 4 C-3.309375 4.66 -3.61875 5.32 -3.9375 6 C-5 8 -5 8 -7.125 8.75 C-8.053125 8.87375 -8.053125 8.87375 -9 9 C-6.21000549 5.51250686 -3.74764169 2.49842779 0 0 Z " fill="#D3D3D3" transform="translate(59,162)"/>
<path d="M0 0 C0.66 0 1.32 0 2 0 C1.39301257 4.12751449 -0.03810791 7.3321148 -2 11 C-2.95465783 8.83032311 -3.14401212 7.43671207 -2.3984375 5.17578125 C-1.64129615 3.4315257 -0.82390802 1.71372869 0 0 Z " fill="#4B4B4B" transform="translate(58,135)"/>
<path d="M0 0 C-1.11805971 3.87020669 -2.0295108 6.28781421 -5 9 C-5.33 9.99 -5.66 10.98 -6 12 C-6.66 11.67 -7.32 11.34 -8 11 C-6.16172132 7.84866512 -4.24027294 4.88035092 -2 2 C-2.66 1.67 -3.32 1.34 -4 1 C-2 0 -2 0 0 0 Z " fill="#B1B1B1" transform="translate(93,44)"/>
<path d="M0 0 C0.66 0.33 1.32 0.66 2 1 C1.57692877 2.31722179 1.13602514 3.62872664 0.6875 4.9375 C0.44386719 5.66839844 0.20023437 6.39929688 -0.05078125 7.15234375 C-1 9 -1 9 -4 10 C-2.66666667 6.66666667 -1.33333333 3.33333333 0 0 Z " fill="#464646" transform="translate(70,77)"/>
<path d="M0 0 C0.99 0.33 1.98 0.66 3 1 C2.67 1.99 2.34 2.98 2 4 C-1.0625 5.1875 -1.0625 5.1875 -4 6 C-2.68 4.02 -1.36 2.04 0 0 Z " fill="#6B6B6B" transform="translate(71,176)"/>
<path d="M0 0 C0.66 0.33 1.32 0.66 2 1 C0.8803014 2.00593243 -0.2459412 3.0045849 -1.375 4 C-2.00148437 4.556875 -2.62796875 5.11375 -3.2734375 5.6875 C-5 7 -5 7 -7 7 C-7 6.34 -7 5.68 -7 5 C-5.46875 3.7109375 -5.46875 3.7109375 -3.5 2.375 C-2.8503125 1.92898437 -2.200625 1.48296875 -1.53125 1.0234375 C-1.0259375 0.68570313 -0.520625 0.34796875 0 0 Z " fill="#545454" transform="translate(190,130)"/>
<path d="M0 0 C0.33 0 0.66 0 1 0 C1 1.65 1 3.3 1 5 C1.66 5 2.32 5 3 5 C3.66 6.65 4.32 8.3 5 10 C4.01 10 3.02 10 2 10 C-0.4294516 6.3558226 -0.16179575 4.28758728 0 0 Z " fill="#202020" transform="translate(37,83)"/>
<path d="M0 0 C0.66 0.33 1.32 0.66 2 1 C1.25 3.375 1.25 3.375 0 6 C-1.98 6.99 -1.98 6.99 -4 8 C-2.68 5.36 -1.36 2.72 0 0 Z " fill="#494949" transform="translate(107,164)"/>
<path d="M0 0 C0.33 0.99 0.66 1.98 1 3 C-0.65 4.65 -2.3 6.3 -4 8 C-4 4.09161134 -2.49432124 2.88405893 0 0 Z " fill="#656565" transform="translate(148,121)"/>
<path d="M0 0 C1 3 1 3 -0.4375 6.1875 C-1.2109375 7.5796875 -1.2109375 7.5796875 -2 9 C-2.66 9 -3.32 9 -4 9 C-2.94124926 5.59687262 -1.99097846 2.98646769 0 0 Z " fill="#363636" transform="translate(74,105)"/>
<path d="M0 0 C1 3 1 3 -0.25 5.625 C-2 8 -2 8 -5 9 C-4.34 7.35 -3.68 5.7 -3 4 C-2.34 4 -1.68 4 -1 4 C-0.67 2.68 -0.34 1.36 0 0 Z " fill="#555555" transform="translate(84,86)"/>
<path d="M0 0 C1.27351308 2.54702616 0.80191925 3.4282945 0.0625 6.125 C-0.13214844 6.84945312 -0.32679687 7.57390625 -0.52734375 8.3203125 C-0.68332031 8.87460938 -0.83929688 9.42890625 -1 10 C-1.66 9.01 -2.32 8.02 -3 7 C-1.59459459 1.59459459 -1.59459459 1.59459459 0 0 Z " fill="#474747" transform="translate(40,73)"/>
</svg>
