<?xml version="1.0" encoding="UTF-8"?>
<svg version="1.1" xmlns="http://www.w3.org/2000/svg" width="32" height="32">
<path d="M0 0 C2.625 0.375 2.625 0.375 5 1 C5 1.99 5 2.98 5 4 C5.886875 3.484375 6.77375 2.96875 7.6875 2.4375 C11.20023331 0.9131063 12.44706507 0.85052105 16 2 C16 2.66 16 3.32 16 4 C17.32 3.67 18.64 3.34 20 3 C19.34 4.32 18.68 5.64 18 7 C17.34 7 16.68 7 16 7 C16.2475 7.680625 16.495 8.36125 16.75 9.0625 C17.10638367 13.25000811 15.51129422 15.73026121 13 19 C9.6556079 21.65244891 6.13374247 21.15899009 2 21 C1.73781251 17.85375007 1.75245633 16.38162983 3.5 13.6875 C3.995 13.130625 4.49 12.57375 5 12 C2.03 11.505 2.03 11.505 -1 11 C-1 9.68 -1 8.36 -1 7 C-1.20625 6.13375 -1.4125 5.2675 -1.625 4.375 C-1.74875 3.59125 -1.8725 2.8075 -2 2 C-1.34 1.34 -0.68 0.68 0 0 Z M8.375 13.375 C5.77636223 15.65718683 5.77636223 15.65718683 6 18 C9.82946843 16.54744301 11.12050295 14.57104439 13 11 C10.65718683 10.77636223 10.65718683 10.77636223 8.375 13.375 Z " fill="#FEFEFE" transform="translate(12,11)"/>
<path d="M0 0 C0.680625 -0.00257812 1.36125 -0.00515625 2.0625 -0.0078125 C4 0.125 4 0.125 7 1.125 C7 1.785 7 2.445 7 3.125 C5.35 3.125 3.7 3.125 2 3.125 C1.86722656 4.22199219 1.73445312 5.31898438 1.59765625 6.44921875 C1.41937015 7.90365801 1.2409792 9.35808442 1.0625 10.8125 C0.93198242 11.8943457 0.93198242 11.8943457 0.79882812 12.99804688 C0.33686195 16.74510584 -0.19167679 20.43292911 -1 24.125 C0.32 24.125 1.64 24.125 3 24.125 C3 25.115 3 26.105 3 27.125 C-0.63 27.455 -4.26 27.785 -8 28.125 C-8 27.135 -8 26.145 -8 25.125 C-7.01 25.125 -6.02 25.125 -5 25.125 C-4.94208156 22.00007749 -4.90643254 18.87529234 -4.875 15.75 C-4.85824219 14.86054688 -4.84148438 13.97109375 -4.82421875 13.0546875 C-4.81777344 12.20390625 -4.81132813 11.353125 -4.8046875 10.4765625 C-4.79421387 9.69104004 -4.78374023 8.90551758 -4.77294922 8.09619141 C-4.82009873 5.890535 -4.82009873 5.890535 -7 4.125 C-7 3.135 -7 2.145 -7 1.125 C-4.32356043 0.23285348 -2.74615622 -0.01040211 0 0 Z " fill="#FEFEFE" transform="translate(8,-0.125)"/>
</svg>
